HIERARCHY
ROOT Hip
{
    OFFSET 0.0 0.0 0.0
    CHANNELS 6 Xposition Yposition Zposition Zrotation Xrotation Yrotation
    JOINT RightHip
    {
        OFFSET -0.09444328397512436 0.0 0.0
        CHANNELS 3 Zrotation Xrotation Yrotation
        JOINT RightKnee
        {
            OFFSET 0.0 0.0 -0.34391456842422485
            CHANNELS 3 Zrotation Xrotation Yrotation
            JOINT RightAnkle
            {
                OFFSET 0.0 0.0 -0.33238762617111206
                CHANNELS 3 Zrotation Xrotation Yrotation
                End Site
                {
                    OFFSET 0.0 -0.13295507431030273 0.0
                }
            }
        }
    }
    JOINT LeftHip
    {
        OFFSET 0.09444328397512436 0.0 0.0
        CHANNELS 3 Zrotation Xrotation Yrotation
        JOINT LeftKnee
        {
            OFFSET 0.0 0.0 -0.34391456842422485
            CHANNELS 3 Zrotation Xrotation Yrotation
            JOINT LeftAnkle
            {
                OFFSET 0.0 0.0 -0.33238762617111206
                CHANNELS 3 Zrotation Xrotation Yrotation
                End Site
                {
                    OFFSET 0.0 -0.13295507431030273 0.0
                }
            }
        }
    }
    JOINT Spine
    {
        OFFSET 0.0 0.0 0.17098607122898102
        CHANNELS 3 Zrotation Xrotation Yrotation
        JOINT Thorax
        {
            OFFSET 0.0 0.0 0.1914195716381073
            CHANNELS 3 Zrotation Xrotation Yrotation
            JOINT Neck
            {
                OFFSET 0.0 0.0 0.08361135423183441
                CHANNELS 3 Zrotation Xrotation Yrotation
                End Site
                {
                    OFFSET 0.0 0.0 0.03344454616308212
                }
            }
            JOINT LeftShoulder
            {
                OFFSET 0.12650877237319946 0.0 0.0
                CHANNELS 3 Zrotation Xrotation Yrotation
                JOINT LeftElbow
                {
                    OFFSET 0.20385046303272247 0.0 0.0
                    CHANNELS 3 Zrotation Xrotation Yrotation
                    JOINT LeftWrist
                    {
                        OFFSET 0.19310639798641205 0.0 0.0
                        CHANNELS 3 Zrotation Xrotation Yrotation
                        End Site
                        {
                            OFFSET 0.07724256813526154 0.0 0.0
                        }
                    }
                }
            }
            JOINT RightShoulder
            {
                OFFSET -0.12650877237319946 0.0 0.0
                CHANNELS 3 Zrotation Xrotation Yrotation
                JOINT RightElbow
                {
                    OFFSET -0.20385046303272247 0.0 0.0
                    CHANNELS 3 Zrotation Xrotation Yrotation
                    JOINT RightWrist
                    {
                        OFFSET -0.19310639798641205 0.0 0.0
                        CHANNELS 3 Zrotation Xrotation Yrotation
                        End Site
                        {
                            OFFSET -0.07724256813526154 0.0 0.0
                        }
                    }
                }
            }
        }
    }
}
MOTION
Frames: 4
Frame Time: 0.016666666666666666
0.0 0.0 0.5550537705421448 142.39842343909666 -0.5060076748845531 -4.597811497260895 -0.503549047717861 -23.701262096256322 10.801422632381845 7.415491002924232 38.043815106623285 -4.5091573991658125 0.0 0.0 -1.987846675914698e-16 1.0894297153893056 -0.8817013140770258 2.8314091942001474 0.05822767806910274 20.599298385579417 -9.533514801227142 0.0 0.0 0.0 -0.14815234551044884 4.221329884363261 8.857056639475363 11.662660827132564 -1.7745059960115484e-07 -2.2009087577948765e-09 -2.0265226581861415 -6.830598409317322 1.877741043065712 -46.028843577189974 24.465345225444317 72.02610052129411 -116.27088803665657 -1.2963696780836063e-06 -2.4026913247588777e-06 -4.4828735839571924e-32 6.4605016967227685e-15 7.951386703658792e-16 24.53082285182012 4.720640356082936 -56.49363449413294 96.77366815575968 -1.2551891915449714e-06 1.659858674978861e-06 6.361109362927032e-15 1.7655625192200634e-31 3.180554681463516e-15
0.0 0.0 0.5537416338920593 144.57254535000075 -2.1662145857910127 -2.4680166333907074 -1.8574708103328126 -17.589884816758524 7.332281559239485 4.604846085447189 33.479064239712166 -2.0108767789901125 -1.3793457181406746e-33 1.5902773407317584e-15 9.93923337957349e-17 1.856148048659562 1.2622499737637456 -0.16023589906739735 -0.4568219822061442 18.78343524991939 -9.747099755548282 6.3611093629270335e-15 -1.5902773407317584e-15 8.827812596100317e-32 -0.06603272133762599 4.73134728940997 9.252657398989825 13.111460404475004 -2.1656305680589771e-07 4.0908526129937144e-08 1.0417520874329445 -4.536229018915049 -0.17008948081428057 -50.876052799878096 23.46076310009949 71.16280007967019 -112.93810068967068 2.5309782888880857e-06 1.3172496198899135e-06 -7.951386703658791e-16 0.0 0.0 23.594779924936674 5.764504949465398 -66.10268348918491 96.57947823262151 -2.2865876075988505e-06 1.7605810294474354e-06 6.3611093629270335e-15 0.0 0.0
0.0 0.0 0.5524517297744751 146.52491214333176 -3.5823485881724553 -1.0135658465428659 -2.8293154930784965 -11.543705686972112 5.006931695958863 2.773456441402329 27.888043081740033 -0.03296567823085591 6.3611093629270335e-15 1.6552148617688095e-32 2.981770013872047e-16 2.6137116366582163 2.8240329782109925 -2.3048361972768814 -0.8470688911075989 17.608742597906797 -10.134003637801664 0.0 1.5902773407317584e-15 0.0 -0.006972565270936022 4.823276529512169 9.278155773865977 12.97734460676741 -2.67442393172128e-07 8.246500804815593e-09 1.738056902677826 -2.9230166026247812 -2.6913398360456617 -53.669999104580484 22.893046642361018 70.97452169365776 -109.89918969238384 3.7158350502447412e-06 -7.163806844230297e-07 0.0 0.0 -7.951386703658792e-16 24.474505780688116 6.135399331469358 -69.90210735262639 94.61512713645227 6.26091350984088e-07 -3.212767162303398e-07 6.3611093629270335e-15 3.1805546814635156e-15 -1.2722218725854065e-14
0.0 0.0 0.5517939329147339 147.33450024510302 -4.156722407880309 -0.534437392471169 -3.0533658458704767 -8.988897741404752 4.212288368942169 2.226695060862215 25.482549615729734 0.5529312653115342 0.0 0.0 -9.939233379573489e-17 2.8183087304806755 3.6035591583432702 -3.0754144513972683 -0.9552381290342205 17.024244497552825 -10.286009047250602 0.0 0.0 3.1805546814635168e-15 0.016595186203197245 4.880429692793745 9.455956152904566 12.690298489631651 3.71906529241363e-08 -3.329073892297792e-08 2.5067086603112267 -2.6964430240134556 -3.7355386819951297 -54.853128239854776 22.763047699470647 70.70970816705653 -108.92270763014002 -4.211827467500825e-06 8.149255687058619e-07 -7.951386703658792e-16 -5.517382872562698e-33 7.951386703658792e-16 24.124558596569603 7.17174977443975 -71.8411818182955 94.08331961980507 5.0462712777967024e-06 -3.2533399740908695e-08 0.0 3.1805546814635168e-15 0.0
